<svg width="56" height="56" viewBox="0 0 56 56" fill="none" xmlns="http://www.w3.org/2000/svg">
<g clip-path="url(#clip0_622_598)">
<path d="M55 28C55 13.0883 42.9117 1 28 1C13.0883 1 1 13.0883 1 28C1 42.9117 13.0883 55 28 55C42.9117 55 55 42.9117 55 28Z" fill="white"/>
<path d="M36.8537 47.41C36.8287 47.507 36.9117 47.716 37.4367 47.774C38.0927 47.847 38.6027 47.628 38.6027 48.138C38.6027 48.648 37.9467 50.325 35.8327 51.856C33.7187 53.387 32.6977 53.606 28.0327 53.606C23.3677 53.606 17.5357 48.576 17.1707 48.357C16.8797 48.182 17.6327 47.652 18.0457 47.409" stroke="#0A0A0A"/>
<path d="M17.7539 40.047L18.0449 48.867M36.8529 43.181V49.524" stroke="#0A0A0A" stroke-linecap="round"/>
<path d="M12.5027 22.988C12.7217 23.208 13.2027 23.82 13.3777 24.519C13.5957 25.394 13.5957 28.82 13.3777 29.622M14.3247 24.738C14.3737 24.179 14.3397 22.901 13.8147 22.259C13.1587 21.458 12.8667 21.093 11.8467 21.093C10.8267 21.093 10.6797 21.895 10.6797 22.697C10.6797 23.499 10.9717 24.301 11.4817 25.394C11.9917 26.488 11.9917 27.144 11.9917 28.237C11.9917 29.331 11.9197 31.445 13.0127 31.955C13.8877 32.363 14.3977 32.125 14.5427 31.955C14.4227 30.91 14.1787 28.616 14.1787 27.8C14.1787 26.983 14.2767 25.418 14.3247 24.738Z" stroke="#0A0A0A" stroke-width="0.5" stroke-linecap="round"/>
<path d="M12.3594 24.957C12.5534 25.297 13.0444 26.036 13.4524 26.269M39.8414 27.362C40.1334 27.071 40.7164 26.633 40.7164 25.904C40.7164 24.957 40.2064 24.446 39.5504 23.864C38.8944 23.28 37.7284 22.843 36.3434 22.843C34.9574 22.843 33.8644 23.353 33.3534 23.572C32.8434 23.79 31.7504 24.665 31.7504 25.832C31.7504 26.998 32.1154 27.872 32.7704 28.092C33.4274 28.31 34.5934 28.018 35.1764 27.872C35.7594 27.727 37.2174 27.582 37.8734 27.727C38.5304 27.873 39.5494 27.654 39.8414 27.362ZM26.0644 28.091C27.1584 28.018 27.5944 26.925 27.5944 26.269C27.5944 25.321 26.8664 24.592 26.0644 24.009C25.2624 23.426 24.6794 23.061 22.6384 23.061C20.5974 23.061 19.7224 23.571 18.9934 24.228C18.2634 24.884 17.7534 25.54 17.7534 26.779C17.7534 28.019 18.9934 28.529 20.3054 28.529C21.6174 28.529 22.2734 27.945 23.2214 27.945C24.1694 27.945 24.9714 28.165 26.0644 28.091Z" stroke="#0A0A0A" stroke-width="0.5" stroke-linecap="round"/>
<path d="M27.957 32.538C28.297 32.611 29.065 32.815 29.415 33.048C29.853 33.34 30.727 33.558 31.602 33.558C32.477 33.558 33.497 32.975 33.497 32.028C33.497 31.08 33.497 31.008 33.206 30.351C32.914 29.695 31.602 28.091 31.602 26.633V24.665" stroke="#0A0A0A" stroke-linecap="round"/>
<path d="M14.6172 31.882C15.1032 33.316 16.3812 36.431 17.6062 37.422C19.1362 38.662 19.7932 39.245 20.3032 38.735C20.8132 38.225 20.8132 36.62 20.8862 35.745C20.9266 35.2451 21.1249 34.771 21.4524 34.3912C21.7799 34.0114 22.2197 33.7455 22.7082 33.632C23.6422 33.398 26.7912 32.952 28.2482 32.757C29.0022 33.048 30.6692 33.632 31.3112 33.632C32.1122 33.632 32.9872 33.122 33.2792 32.757C33.5702 32.392 36.3412 33.34 36.5592 33.632C36.7782 33.923 33.9352 35.235 32.3312 35.308C30.7272 35.381 28.3212 35.235 26.4992 35.017C24.6772 34.798 22.7092 34.142 22.1992 34.725C21.6882 35.308 20.9592 36.329 21.8342 37.422C22.7082 38.516 24.8232 41.359 28.2492 41.505C31.6752 41.65 32.6962 41.65 34.1542 41.14C35.3202 40.732 36.2442 39.658 36.5592 39.172C36.6562 38.759 36.9672 37.991 37.4342 38.224C38.0042 38.509 39.8242 39.071 40.9272 37.538L41.0062 37.422C40.9802 37.462 40.9542 37.501 40.9262 37.538C39.3692 39.812 36.3042 44.238 35.9032 44.639C35.3932 45.149 35.1012 45.879 33.8622 46.607C32.6222 47.337 29.9982 47.993 28.2492 47.628C26.4992 47.264 21.2512 45.733 19.4292 42.088C18.6502 41.188 16.9202 39.084 16.2212 37.86C15.5212 36.635 14.8602 33.364 14.6172 31.882Z" fill="black" fill-opacity="0.2"/>
<path d="M23.7305 44.275C24.5565 44.955 27.0695 46.315 30.5105 46.315C34.8105 46.315 36.1965 44.129 36.7795 43.4C37.3625 42.671 39.4035 39.682 40.1325 38.88C40.8625 38.078 41.5905 36.256 41.7365 34.798C41.8825 33.34 42.1745 29.622 42.1015 28.674C42.0285 27.727 41.7365 23.353 41.7365 21.531C41.7365 19.708 41.6635 14.824 41.1535 13.949C40.6435 13.074 39.6225 9.939 37.3635 8.919C35.1035 7.899 31.8225 6.951 29.9275 6.951C28.0315 6.951 22.8555 6.586 20.6695 7.898C18.4815 9.211 16.7325 10.668 16.0035 13.001C15.2745 15.334 14.7635 19.854 14.6185 20.801C14.4725 21.749 14.3995 23.717 14.3265 25.248C14.2535 26.779 14.1805 27.362 14.3265 29.549C14.4725 31.736 14.9095 34.725 15.3465 35.892C15.7845 37.058 15.9305 37.495 16.5865 38.442C17.2425 39.391 18.6275 41.432 20.2315 42.598M22.4185 32.611C22.1265 32.927 21.4275 33.631 20.9605 33.923C20.3775 34.288 20.0855 34.725 20.2315 35.381C20.3485 35.906 20.5715 36.329 20.6695 36.475M35.6855 33.121C35.8805 33.243 36.3565 33.529 36.7065 33.705C37.1445 33.923 37.1445 34.506 36.7065 34.944C36.2695 35.381 34.5925 36.474 31.7495 36.474C28.9065 36.474 25.3345 36.256 23.7305 35.527C22.1265 34.798 21.9805 35.163 21.7625 35.527C21.5435 35.891 21.9085 36.693 23.4395 37.568C24.9695 38.443 26.5005 39.609 29.1255 39.609C31.7495 39.609 33.6455 39.026 34.2285 38.662C34.8115 38.297 35.2485 37.787 36.0505 37.787C36.8525 37.787 36.7065 38.734 36.7065 39.099C36.7065 39.391 36.1715 39.852 35.9045 40.047" stroke="#0A0A0A" stroke-linecap="round"/>
<path d="M35.1755 35.892V38.005M32.5515 36.475V39.099M29.4895 36.475V39.609M26.4275 36.183V39.1M23.7305 35.528V37.642" stroke="#0A0A0A" stroke-width="0.5" stroke-linecap="round"/>
<path fill-rule="evenodd" clip-rule="evenodd" d="M44.5809 25.248C44.6529 25.139 44.7259 25.048 44.7939 24.962C44.9989 24.706 45.1639 24.502 45.1639 24.009C45.1639 23.353 44.8219 23.234 44.4189 23.093C44.3289 23.061 44.2359 23.028 44.1429 22.988C43.8999 22.884 43.4589 22.879 42.7489 22.871C41.6075 22.8673 40.4668 22.8092 39.3309 22.697C36.5289 22.417 33.9969 22.81 32.9619 22.97L32.8429 22.988C32.4679 23.046 32.1949 23.184 31.9079 23.33C31.4699 23.551 30.9979 23.79 30.0729 23.79C29.0829 23.79 28.4599 23.577 27.7879 23.348C27.4199 23.222 27.0379 23.092 26.5739 22.988C25.5589 22.763 23.7149 22.799 22.2909 22.827C21.8739 22.835 21.4929 22.843 21.1799 22.843C19.8579 22.843 17.6069 23.241 16.3269 23.467L16.1499 23.499C15.1579 23.674 14.5699 23.718 14.3999 23.718L14.2539 25.831C14.4969 25.831 15.0119 25.89 15.1289 26.123C15.2169 26.299 15.2249 26.819 15.2339 27.365C15.2399 27.724 15.2459 28.094 15.2739 28.383C15.3479 29.112 15.9309 29.623 16.2949 29.913C16.6599 30.205 18.3369 30.716 20.9609 30.716C23.5849 30.716 25.8449 30.06 27.0109 29.258C28.1779 28.456 28.6879 26.633 28.8339 25.978C28.9799 25.321 29.5629 24.957 30.4379 24.957C31.3129 24.957 31.6039 25.54 31.6039 26.779C31.6039 28.019 32.0419 28.383 32.4059 28.674C32.5549 28.794 32.7269 28.864 32.9139 28.94C33.1869 29.05 33.4889 29.174 33.7909 29.476C34.3009 29.986 35.7589 30.497 38.5299 30.497C41.2999 30.497 42.9029 29.622 43.5599 29.257C44.2159 28.893 44.2889 27.362 44.2889 26.633C44.2889 25.904 44.2889 25.686 44.5799 25.248H44.5809ZM41.6639 23.498C40.5559 23.032 37.6059 23.061 36.2699 23.134C34.5199 23.134 32.4059 24.009 32.4059 25.54C32.4059 27.07 33.3539 28.237 34.3739 28.966C35.2309 29.578 35.7799 29.574 37.7479 29.556C38.1229 29.553 38.5489 29.549 39.0399 29.549C41.8039 29.549 42.3699 29.014 42.9899 28.428C43.0569 28.364 43.1239 28.301 43.1949 28.238C43.7799 27.711 43.7079 26.716 43.6569 26.004C43.6434 25.8497 43.6351 25.6949 43.6319 25.54C43.6319 24.884 43.0489 24.082 41.6639 23.499V23.498ZM28.1459 25.642C27.7829 26.806 27.2629 28.475 25.9179 29.112C24.5329 29.768 23.0019 29.841 21.1799 29.841C19.3569 29.841 17.3889 29.549 16.7329 28.893C16.0769 28.237 15.7849 27.873 15.7849 26.706C15.7849 25.54 16.0769 24.592 16.8049 24.228C17.5349 23.863 18.6279 23.572 20.8149 23.426C21.1909 23.401 21.5409 23.376 21.8699 23.352C23.4569 23.239 24.5649 23.159 25.7719 23.28C27.2299 23.426 28.1779 24.52 28.1779 25.54L28.1459 25.642Z" fill="#0A0A0A"/>
<path d="M17.8242 21.53C17.4162 21.764 17.1682 22.26 17.0952 22.478C17.0372 22.624 17.4602 23.061 17.6792 23.28C17.8972 23.499 18.6263 23.061 19.2823 22.77C19.9383 22.478 20.8132 22.114 22.9272 22.114C25.0412 22.114 25.4792 22.478 26.3542 22.478C27.2282 22.478 27.7392 21.53 27.3742 20.874C27.0102 20.218 25.3332 20.291 24.3122 20.291C23.2922 20.291 22.0522 20.145 20.6672 20.291C19.2822 20.437 18.3352 21.238 17.8242 21.53ZM41.0062 21.458C41.4142 21.749 41.6142 21.725 41.6622 21.676L41.8082 22.916H40.4232C39.8402 22.916 40.2043 22.406 39.7673 22.186C39.3293 21.968 39.1112 22.186 37.1423 22.041C35.1742 21.895 34.1542 22.332 33.4972 22.405C32.8412 22.478 32.5502 21.895 32.4042 21.676C32.2582 21.458 32.4042 20.874 33.1332 20.51C33.8622 20.145 36.9233 19.927 38.4552 20.145C39.9853 20.365 40.4952 21.093 41.0062 21.458Z" fill="#0A0A0A"/>
<path d="M15.5642 22.988C15.6222 23.572 15.2962 24.155 15.1262 24.374C14.8342 24.471 14.2512 24.476 14.2512 23.717C14.2512 22.77 13.5952 21.677 13.5952 21.531C13.5952 21.385 13.6682 20.656 13.7412 20C13.8142 19.343 13.0122 18.687 12.9392 18.469C12.8662 18.25 13.2312 18.031 13.3772 17.594C13.5222 17.157 13.3772 17.011 13.5952 16.574C13.8142 16.136 13.5222 15.553 13.3772 15.334C13.2312 15.115 13.3042 14.824 13.5222 14.605C13.7422 14.386 13.7422 14.241 13.8142 13.876C13.8872 13.512 13.9602 13.585 14.0332 13.439C14.1052 13.293 13.9602 12.929 14.1782 12.637C14.3982 12.345 14.3982 12.127 14.3242 11.907C14.2512 11.689 14.2512 11.397 14.3242 11.325C14.3972 11.252 14.3972 10.815 14.3972 10.669C14.3972 10.523 14.6892 10.377 15.2722 9.867C15.8552 9.357 15.4182 9.357 15.7092 8.992C16.0012 8.627 16.4392 8.7 16.8762 8.627C17.3132 8.555 17.0212 7.534 17.1672 7.097C17.3132 6.659 17.7512 6.441 18.0422 6.295C18.3342 6.149 18.3342 5.712 18.5522 5.42C18.7712 5.128 19.2822 5.201 19.8652 5.201C20.4482 5.201 20.5212 4.983 20.8852 4.764C21.2502 4.545 21.4682 4.472 21.9792 4.472C22.4892 4.472 22.6352 4.181 22.8532 4.035C23.0722 3.889 23.6552 3.67 24.2382 3.67C24.8222 3.67 25.0402 3.962 25.3322 4.035C25.6232 4.108 25.9152 3.743 26.2072 3.67C26.4982 3.597 26.5712 3.379 27.3732 3.379C28.1752 3.379 28.2482 3.597 28.7582 3.597C29.2682 3.597 29.5602 3.233 29.6332 3.087C29.7062 2.941 29.8522 2.941 29.9242 3.379C29.9972 3.816 30.3622 3.67 30.9452 3.525C31.5282 3.379 32.1852 3.087 32.2572 3.525C32.3302 3.962 33.2052 4.108 33.4972 4.035C33.7882 3.962 33.9342 3.452 33.9342 3.67C33.9342 3.89 34.2252 4.254 35.1002 4.326C35.9752 4.399 35.1732 4.91 36.0482 5.128C36.9232 5.347 36.5582 5.274 36.9232 5.566C37.2872 5.857 38.0162 5.347 38.0892 6.003C38.1622 6.659 38.3812 6.733 38.5992 7.023C38.8192 7.315 39.1092 7.243 39.3292 7.388C39.5472 7.534 39.3292 7.971 39.4012 8.19C39.4742 8.409 39.8392 8.627 40.1312 8.846C40.4212 9.065 40.9322 10.158 40.9322 10.377C40.9322 10.596 41.0782 11.325 41.2242 11.325C41.3692 11.325 41.5882 11.616 41.5882 11.981C41.5882 12.345 41.8072 12.564 41.9532 12.928C42.0982 13.293 41.9532 13.73 42.0982 13.949C42.2442 14.168 42.0982 14.313 42.0262 14.459C41.9532 14.605 41.8802 14.678 41.9532 14.969C42.0262 15.261 42.0262 15.553 41.9532 16.209C41.8802 16.865 41.9532 18.031 42.0982 18.833C42.2442 19.635 42.0262 20.437 42.0262 20.802C42.0262 21.166 41.5882 21.749 41.6612 21.603C41.7342 21.458 41.5152 21.02 41.5152 20.437C41.5152 19.854 41.3692 19.854 41.2242 19.197C41.0782 18.542 41.1512 18.25 41.0782 17.813C41.0052 17.375 40.5682 16.063 40.5682 15.553C40.5682 15.043 39.8382 13.657 39.1102 13.366C38.3802 13.074 37.0692 12.272 36.4122 11.543C35.7562 10.814 34.8092 10.96 34.1522 11.325C33.4962 11.689 32.9132 12.272 31.6022 12.272C30.2892 12.272 30.0702 12.054 28.6122 11.762C27.1542 11.47 25.9882 10.377 25.1132 10.304C24.2382 10.231 23.7282 10.669 23.2912 10.814C22.8532 10.96 21.1772 11.179 20.5212 11.179C19.8642 11.179 19.2812 11.398 18.4072 11.981C17.5322 12.564 17.3132 13.585 17.0942 14.241C16.8762 14.897 16.8032 14.97 16.6572 15.115C16.5112 15.261 16.5842 15.771 16.6572 16.209C16.7302 16.646 16.4382 16.646 16.2932 16.865C16.1472 17.084 16.2932 17.885 16.2202 18.105C16.1472 18.323 15.9282 18.906 15.9282 19.416C15.9282 19.926 15.8552 20.729 15.7092 21.385C15.5632 22.041 15.4912 22.259 15.5632 22.988H15.5642Z" fill="#0A0A0A"/>
<path d="M24.8967 26.706C25.1784 26.706 25.4067 26.4777 25.4067 26.196C25.4067 25.9143 25.1784 25.686 24.8967 25.686C24.6151 25.686 24.3867 25.9143 24.3867 26.196C24.3867 26.4777 24.6151 26.706 24.8967 26.706Z" fill="#0A0A0A"/>
<path d="M38.3108 26.269C38.5924 26.269 38.8208 26.0407 38.8208 25.759C38.8208 25.4773 38.5924 25.249 38.3108 25.249C38.0291 25.249 37.8008 25.4773 37.8008 25.759C37.8008 26.0407 38.0291 26.269 38.3108 26.269Z" fill="#0A0A0A"/>
<path d="M55 28C55 13.0883 42.9117 1 28 1C13.0883 1 1 13.0883 1 28C1 42.9117 13.0883 55 28 55C42.9117 55 55 42.9117 55 28Z" stroke="#0A0A0A" stroke-width="2"/>
</g>
<defs>
<clipPath id="clip0_622_598">
<rect width="56" height="56" fill="white"/>
</clipPath>
</defs>
</svg>
