<svg width="346" height="63" viewBox="0 0 346 63" fill="none" xmlns="http://www.w3.org/2000/svg">
<path fill-rule="evenodd" clip-rule="evenodd" d="M16.4531 45.0857L30.9726 14.0857H33.2064L47.7258 45.0857H41.0246L39.9077 40.6571H24.2713L23.1544 45.0857L16.4531 45.0857ZM32.0891 62.8C14.8177 62.8 0.816406 48.9209 0.816406 31.8C0.816406 14.6792 14.8177 0.800049 32.0891 0.800049C49.3606 0.800049 63.3619 14.6792 63.3619 31.8C63.3619 48.9209 49.3606 62.8 32.0891 62.8ZM32.0891 58.3715C46.8923 58.3715 58.8943 46.4741 58.8943 31.8001C58.8943 17.126 46.8923 5.22862 32.0891 5.22862C17.286 5.22862 5.28394 17.126 5.28394 31.8001C5.28394 46.4741 17.286 58.3715 32.0891 58.3715ZM26.5047 36.2286L32.0891 22.9429L37.6735 36.2286H26.5047Z" fill="#0A0A0A"/>
<path d="M100.263 41.8L102.412 46.8H107.626L94.3177 16.3H92.6713L79.3633 46.8H84.531L86.6804 41.8H100.263ZM93.4945 25.2091L98.4793 37.6637H88.464L93.4945 25.2091Z" fill="#0A0A0A"/>
<path d="M143.256 16.8H138.408V37.0273L120.07 16.3H118.378V46.8H123.225V26.5273L141.61 47.3H143.256V16.8Z" fill="#0A0A0A"/>
<path d="M170.83 16.3C162.049 16.3 155.006 23.0273 155.006 31.8C155.006 40.5728 162.003 47.3 170.83 47.3C179.564 47.3 186.699 40.6182 186.699 31.8C186.699 23.0273 179.564 16.3 170.83 16.3ZM170.875 20.7091C177.049 20.7091 181.714 25.4364 181.714 31.7546C181.714 38.2091 177.049 42.891 170.875 42.891C164.61 42.891 160.037 38.2091 160.037 31.7546C160.037 25.391 164.61 20.7091 170.875 20.7091Z" fill="#0A0A0A"/>
<path d="M227.138 16.3H225.492L212.824 33.0728L200.156 16.3H198.464V46.8L203.312 46.8V27.9819L212.001 39.2546H213.647L222.291 27.9819V46.8L227.138 46.8V16.3Z" fill="#0A0A0A"/>
<path d="M258.784 41.8L260.933 46.8H266.146L252.838 16.3H251.192L237.884 46.8H243.052L245.201 41.8H258.784ZM252.015 25.2091L257 37.6637H246.985L252.015 25.2091Z" fill="#0A0A0A"/>
<path d="M281.746 42.4819V16.8H276.898V46.8L295.557 46.8V42.4819L281.746 42.4819Z" fill="#0A0A0A"/>
<path d="M311.227 46.8V16.8H306.38V46.8H311.227Z" fill="#0A0A0A"/>
<path d="M344.633 21.1182V16.8L324.785 16.8V46.8H345.181V42.4819H329.633V32.9819H340.928V28.8H329.633V21.1182L344.633 21.1182Z" fill="#0A0A0A"/>
</svg>
