<svg width="344" height="67" viewBox="0 0 344 67" fill="none" xmlns="http://www.w3.org/2000/svg">
<g clip-path="url(#clip0_624_52854)">
<mask id="mask0_624_52854" style="mask-type:luminance" maskUnits="userSpaceOnUse" x="0" y="0" width="344" height="67">
<path d="M344 0.800049H0V66.3239H344V0.800049Z" fill="white"/>
</mask>
<g mask="url(#mask0_624_52854)">
<path d="M126.609 44.8799H130.384V53.7911H140.644V44.8799H144.419V66.324H140.644V57.2817H130.384V66.324H126.609V44.8799Z" fill="#0A0A0A"/>
<path d="M153.57 44.8799H169.516V48.2513H157.345V53.8267H168.095V57.1984H157.345V62.9526H169.671V66.324H153.57V44.8799Z" fill="#0A0A0A"/>
<path d="M184.818 44.8799H188.294L197.683 66.324H193.717L191.555 61.1894H181.462L179.264 66.324H175.418L184.818 44.8799ZM190.181 57.8655L186.49 49.3474L182.835 57.8655H190.181Z" fill="#0A0A0A"/>
<path d="M204.523 44.8799H208.309V62.893H219.61V66.324H204.523V44.8799Z" fill="#0A0A0A"/>
<path d="M228.258 48.3705H221.438V44.8799H238.889V48.3705H232.069V66.324H228.258V48.3705Z" fill="#0A0A0A"/>
<path d="M246.164 44.8799H249.938V53.7911H260.198V44.8799H263.974V66.324H260.198V57.2817H249.938V66.324H246.164V44.8799Z" fill="#0A0A0A"/>
<path fill-rule="evenodd" clip-rule="evenodd" d="M81.0418 3.92136L111.404 57.4245C111.792 58.1058 112.041 58.8564 112.137 59.6335C112.233 60.4108 112.175 61.1993 111.965 61.9539C111.755 62.7086 111.398 63.4146 110.915 64.0316C110.431 64.6485 109.831 65.1643 109.147 65.5495C108.247 66.0581 107.231 66.3249 106.197 66.3239H35.2109L70.6262 3.92136C71.0113 3.23063 71.5304 2.62326 72.1531 2.13461C72.7759 1.64596 73.4899 1.28581 74.2537 1.07514C75.0175 0.86447 75.8154 0.807492 76.6015 0.907527C77.3876 1.00756 78.1458 1.26261 78.832 1.65781C79.7569 2.20343 80.5194 2.98467 81.0418 3.92136Z" fill="#4C7DDD"/>
<path fill-rule="evenodd" clip-rule="evenodd" d="M41.5785 3.79041L53.8694 25.0321L30.124 66.324H5.97223C4.38829 66.324 2.86923 65.6964 1.74922 64.5792C0.629215 63.4622 0 61.947 0 60.3672C0.00108429 59.3399 0.268541 58.3303 0.77639 57.4365L31.1869 3.82614C31.7078 2.90942 32.4632 2.14691 33.376 1.61641C34.2888 1.08591 35.3263 0.806396 36.3827 0.806396C37.4393 0.806396 38.4768 1.08591 39.3896 1.61641C40.3023 2.14691 41.0576 2.90942 41.5785 3.82614V3.79041Z" fill="#8CACEA"/>
<path d="M158.501 36.3021V11.2839L146.019 32.1324H143.762L131.387 11.4507V36.3021H126.609V1.99146H130.635L144.968 26.1042L159.146 1.99146H163.171V36.3021H158.501Z" fill="#0A0A0A"/>
<path d="M176.92 34.408C174.196 32.9519 171.928 30.7755 170.363 28.1177C168.762 25.4003 167.936 22.2984 167.974 19.1469C167.936 15.9954 168.762 12.8934 170.363 10.1761C171.931 7.51766 174.198 5.33813 176.92 3.87388C179.813 2.37438 183.025 1.59155 186.285 1.59155C189.545 1.59155 192.757 2.37438 195.649 3.87388C198.362 5.33017 200.623 7.50199 202.183 10.1522C203.785 12.8777 204.611 15.9877 204.572 19.1469C204.611 22.3061 203.785 25.4161 202.183 28.1414C200.622 30.7886 198.362 32.9564 195.649 34.408C192.757 35.9074 189.545 36.6903 186.285 36.6903C183.025 36.6903 179.813 35.9074 176.92 34.408ZM193.117 30.5838C195.114 29.4583 196.766 27.8108 197.895 25.8184C199.065 23.7647 199.667 21.4375 199.638 19.0754C199.667 16.7133 199.065 14.386 197.895 12.3324C196.766 10.3401 195.114 8.69256 193.117 7.56703C191.035 6.44901 188.696 5.89449 186.332 5.95872C183.937 5.92809 181.574 6.51928 179.476 7.67426C177.478 8.79832 175.826 10.4462 174.698 12.4396C173.528 14.4933 172.926 16.8205 172.955 19.1826C172.926 21.5448 173.528 23.872 174.698 25.9257C175.826 27.9191 177.478 29.567 179.476 30.6909C181.581 31.821 183.943 32.3876 186.332 32.335C188.709 32.3556 191.049 31.7516 193.117 30.5838Z" fill="#0A0A0A"/>
<path d="M209.363 1.99141H223.852C227.206 1.925 230.53 2.66457 233.537 4.14774C236.255 5.49919 238.528 7.59956 240.084 10.1998C241.689 12.9066 242.516 16.0022 242.473 19.1467C242.514 22.2911 241.687 25.3861 240.084 28.0936C238.53 30.6984 236.257 32.8029 233.537 34.1576C230.53 35.6407 227.206 36.3803 223.852 36.314H209.363V1.99141ZM223.566 32.0371C226.109 32.0928 228.627 31.5371 230.91 30.4169C232.944 29.4104 234.641 27.8379 235.796 25.8898C236.967 23.8376 237.561 21.5079 237.516 19.1467C237.561 16.7856 236.967 14.4558 235.796 12.4037C234.641 10.4555 232.944 8.88304 230.91 7.87664C228.627 6.75639 226.109 6.20066 223.566 6.25642H214.271V32.0371H223.566Z" fill="#0A0A0A"/>
<path d="M273.434 32.0372V36.3021H248.445V1.99146H272.73V6.25647H253.39V16.7879H270.639V20.9576H253.39V32.0372H273.434Z" fill="#0A0A0A"/>
<path d="M302.923 36.3021L295.494 25.8183C294.585 25.8898 293.858 25.9254 293.332 25.9254H284.838V36.3021H279.918V1.99146H293.332C297.783 1.99146 301.291 3.05176 303.855 5.17233C305.12 6.2397 306.123 7.58154 306.787 9.09516C307.452 10.6088 307.759 12.254 307.69 13.9049C307.786 16.3204 307.119 18.7051 305.777 20.7194C304.393 22.6343 302.43 24.0578 300.175 24.7818L308.335 36.3021H302.923ZM300.318 19.6829C301.133 18.9761 301.772 18.0911 302.188 17.097C302.602 16.1029 302.78 15.0267 302.708 13.9525C302.782 12.8816 302.604 11.8084 302.19 10.8178C301.774 9.82731 301.135 8.94675 300.318 8.24599C298.234 6.7765 295.701 6.07345 293.152 6.25647H284.791V21.744H293.152C295.709 21.9123 298.244 21.1831 300.318 19.6829Z" fill="#0A0A0A"/>
<path d="M344 1.99146V36.3021H339.974L319.334 10.7121V36.3021H314.414V1.99146H318.45L339.092 27.5815V1.99146H344Z" fill="#0A0A0A"/>
</g>
</g>
<defs>
<clipPath id="clip0_624_52854">
<rect width="344" height="65.5238" fill="white" transform="translate(0 0.800049)"/>
</clipPath>
</defs>
</svg>
