<svg width="344" height="91" viewBox="0 0 344 91" fill="none" xmlns="http://www.w3.org/2000/svg">
<path d="M42.6058 6.6712L15.3486 22.2673L15.3486 1.60278L0 1.60278L0 90.2173H0.406111L42.6058 66.0712L84.8056 90.2173H85.2236L85.2236 31.1133L42.6058 6.6712ZM69.8511 64.0817L42.6058 48.4857L15.3486 64.0817L15.3486 39.8291L42.6058 24.2449L69.8511 39.8409L69.8511 64.0817Z" fill="#DB3939"/>
<path d="M149.773 24.5527H134.974V1.60269L119.613 1.60269L119.613 90.2172H149.773C153.885 90.2187 157.956 89.417 161.755 87.8577C165.554 86.2984 169.006 84.0122 171.913 81.1298C174.821 78.2473 177.127 74.8251 178.7 71.0586C180.272 67.2922 181.081 63.2554 181.079 59.179V55.6264C181.086 51.547 180.28 47.5064 178.71 43.7358C177.139 39.9653 174.834 36.5389 171.926 33.6526C169.018 30.7664 165.565 28.477 161.764 26.9155C157.962 25.3541 153.888 24.5511 149.773 24.5527ZM165.719 59.6408C165.72 61.7951 165.294 63.9286 164.463 65.9192C163.632 67.9098 162.413 69.7185 160.877 71.2418C159.341 72.7651 157.516 73.9732 155.508 74.7969C153.501 75.6205 151.349 76.0437 149.176 76.0422H134.974V38.7158L149.176 38.7158C153.563 38.7158 157.771 40.4438 160.873 43.5197C163.976 46.5955 165.719 50.7673 165.719 55.1172V59.6408ZM249.426 24.5527V60.3632C249.426 68.2401 246.269 75.7945 240.651 81.3643C235.033 86.9341 227.414 90.0632 219.469 90.0632H217.462C209.521 90.0569 201.908 86.9251 196.295 81.3559C190.682 75.7868 187.529 68.236 187.529 60.3632V24.5527L202.878 24.5527V61.2632C202.878 63.1879 203.261 65.0937 204.004 66.8718C204.747 68.6498 205.837 70.2652 207.21 71.6256C208.583 72.986 210.213 74.0648 212.007 74.8002C213.801 75.5357 215.724 75.9135 217.665 75.9119H219.325C221.268 75.9135 223.191 75.5353 224.986 74.7991C226.781 74.0629 228.412 72.9831 229.785 71.6214C231.159 70.2597 232.248 68.643 232.99 66.8636C233.733 65.0842 234.114 63.1771 234.113 61.2514V24.5408L249.426 24.5527ZM301.539 90.2172H286.191V1.60269L301.539 1.60269V90.2172ZM274.891 90.2172H259.53V24.5527L274.891 24.5527V90.2172ZM275.918 8.94479C275.918 10.6494 275.409 12.3157 274.454 13.7332C273.499 15.1506 272.141 16.2556 270.553 16.9085C268.965 17.5613 267.217 17.7327 265.531 17.401C263.844 17.0694 262.295 16.2495 261.078 15.045C259.862 13.8405 259.033 12.3055 258.696 10.6339C258.359 8.96238 258.529 7.22935 259.186 5.65385C259.842 4.07836 260.955 2.73112 262.383 1.7824C263.811 0.833686 265.491 0.32608 267.211 0.323739C268.354 0.322182 269.486 0.544024 270.542 0.976575C271.598 1.40913 272.558 2.0439 273.367 2.8446C274.176 3.64529 274.817 4.59619 275.255 5.64292C275.693 6.68965 275.918 7.81166 275.918 8.94479ZM326.563 31.729V66.6395C326.563 69.1521 327.569 71.5618 329.361 73.3384C331.153 75.1151 333.584 76.1132 336.118 76.1132H338.364V90.3237H335.175C328.839 90.3237 322.763 87.8284 318.283 83.3868C313.803 78.9451 311.286 72.921 311.286 66.6395V1.60269L326.563 1.60269V17.5658L344.002 17.5658V31.7764L326.563 31.729Z" fill="#0A0A0A"/>
</svg>
