<svg width="344" height="41" viewBox="0 0 344 41" fill="none" xmlns="http://www.w3.org/2000/svg">
<path d="M14.9 17.9L14.4 17.7C8.3 16 5.4 14.8 5.4 9.9C5.4 5.8 7.9 3.5 12 3.5C12 3.5 20.7 3.5 23.2 10.7L23.4 11H26V0L23.2 0L22.1 4C19.5 1.5 16.1 0 12.3 0C5.2 0 0.2 4.6 0.2 11.2C0.2 18.6 6.3 20.7 13.2 22.4C20.1 24.1 23 25.5 23 30.5C23 34.9 19.3 37.1 16.1 37.1C10.3 37.1 6.1 34.8 2.9 30.1L2.7 29.8H0L0 40.8H2.8L4 36C7.4 39.2 11 40.7 15.6 40.7C23 40.7 28.2 35.6 28.2 28.9C28.2 21.4 22.1 19.8 14.9 17.9ZM33.8 8.4H36.4L36.6 7.6C37.5 3.2 37.7 3.2 40.7 3.2L47.7 3.2L47.7 37.4H44V40.6H57.3V37.4H53.6L53.6 3.2L60.5 3.2C63.7 3.2 64 3.2 64.9 7.6L65.1 8.4H67.7V0L33.8 0V8.4ZM96.8 8.4H99.4L99.6 7.6C100.5 3.2 100.7 3.2 103.7 3.2L110.7 3.2V37.4L107 37.4V40.6L120.3 40.6V37.4H116.6V3.2L123.5 3.2C126.7 3.2 127 3.2 127.9 7.6L128.1 8.4H130.7V0L96.7 0V8.4H96.8ZM75.5 0V3.2L79.3 3.2V37.5H75.5V40.7H88.8V37.5H85.1V3.2L88.8 3.2V0L75.5 0ZM202.8 0V3.2L206.6 3.2V19.9L187.6 19.9V3.2L191.3 3.2V0L178 0V3.2L182 3.2V37.5H178.2V40.7H191.5V37.5H187.7V23.1L206.7 23.1V37.5H202.9V40.7H216.2V37.5H212.5V3.2L216.2 3.2V0L202.8 0ZM285.5 0V3.2L289.3 3.2V37.5L285.5 37.5V40.7L298.8 40.7V37.5H295.1V3.2L298.8 3.2V0L285.5 0ZM330.7 0V3.2L333.8 3.2L325.2 15.6L316.9 3.2L320 3.2V0L306.7 0V3.2L310.5 3.2L322.1 20.5L310.6 37.5H306.5V40.7H319.8V37.5H315.5L324.4 24.2L333.3 37.5L329.9 37.5V40.7L343.2 40.7V37.5H339.5L327.6 19.3L338.6 3.2L344 3.2V0L330.7 0ZM247.2 3.2L251.2 3.2V37.4H247.2V40.6H260.5V37.4H257V23H263.1C265.4 23 265.6 23.3 266.3 25.6L266.5 25.9V26.2H269.1V16.1H266.5V16.4C266.5 16.7 266.3 16.9 266.2 17C265.4 18.8 265.1 19.8 263 19.8H256.9V3.2L270.8 3.2C273.4 3.2 274 4 275.5 7.8V8.1H278.6V0L247 0L247.2 3.2ZM165.7 24.7C164.5 32.7 160.2 37.1 153.6 37.1C145.8 37.1 141 30.5 141 20.1C141 10.1 145.7 3.7 153.1 3.7C160.1 3.7 163.8 8.1 165.5 12L165.7 12.3H168.5V0L165.4 0L164.3 4.3C161.4 1.4 157.7 0 153.3 0C142.9 0 134.9 8.7 134.9 20.4C134.9 26.4 136.7 31.4 140 35.1C143.2 38.8 147.8 40.6 152.9 40.6C162.1 40.6 167.9 34.9 169.1 24.7V24.2L165.6 24.2V24.7L165.7 24.7Z" fill="#0A0A0A"/>
</svg>
